<?xml version="1.0" encoding="utf-8"?>
<!-- Generator: Adobe Illustrator 25.2.1, SVG Export Plug-In . SVG Version: 6.00 Build 0)  -->
<svg version="1.1" id="Camada_1" xmlns="http://www.w3.org/2000/svg" xmlns:xlink="http://www.w3.org/1999/xlink" x="0px" y="0px"
	 viewBox="0 0 100 100" style="enable-background:new 0 0 100 100;" xml:space="preserve">
<style type="text/css">
	.st0{fill:#F29F01;}
</style>
<g>
	<rect x="38.6" y="19.4" class="st0" width="22.4" height="5.3"/>
	<rect x="2.2" y="31.6" class="st0" width="5.5" height="5.3"/>
	<rect x="12.4" y="31.6" class="st0" width="5.5" height="5.3"/>
	<rect x="22.4" y="31.6" class="st0" width="5.5" height="5.3"/>
	<rect x="32.6" y="31.6" class="st0" width="5.5" height="5.3"/>
	<rect x="41.8" y="31.6" class="st0" width="5.5" height="5.3"/>
	<rect x="52" y="31.6" class="st0" width="5.5" height="5.3"/>
	<rect x="62" y="31.6" class="st0" width="5.5" height="5.3"/>
	<rect x="72.2" y="31.6" class="st0" width="5.5" height="5.3"/>
	<rect x="82.2" y="31.6" class="st0" width="5.5" height="5.3"/>
	<rect x="92.3" y="31.6" class="st0" width="5.5" height="5.3"/>
	<rect x="2.2" y="48.8" class="st0" width="5.5" height="5.3"/>
	<rect x="12.4" y="48.8" class="st0" width="5.5" height="5.3"/>
	<rect x="22.4" y="48.8" class="st0" width="5.5" height="5.3"/>
	<rect x="32.6" y="48.8" class="st0" width="5.5" height="5.3"/>
	<rect x="41.8" y="48.8" class="st0" width="5.5" height="5.3"/>
	<rect x="52" y="48.8" class="st0" width="5.5" height="5.3"/>
	<rect x="62" y="48.8" class="st0" width="5.5" height="5.3"/>
	<rect x="72.2" y="48.8" class="st0" width="5.5" height="5.3"/>
	<rect x="82.2" y="48.8" class="st0" width="5.5" height="5.3"/>
	<rect x="92.3" y="48.8" class="st0" width="5.5" height="5.3"/>
	<rect x="6.3" y="40.2" class="st0" width="5.5" height="5.3"/>
	<rect x="16.4" y="40.2" class="st0" width="5.5" height="5.3"/>
	<rect x="26.5" y="40.2" class="st0" width="5.5" height="5.3"/>
	<rect x="36.7" y="40.2" class="st0" width="5.5" height="5.3"/>
	<rect x="45.9" y="40.2" class="st0" width="5.5" height="5.3"/>
	<rect x="56.1" y="40.2" class="st0" width="5.5" height="5.3"/>
	<rect x="66.1" y="40.2" class="st0" width="5.5" height="5.3"/>
	<rect x="76.3" y="40.2" class="st0" width="5.5" height="5.3"/>
	<rect x="86.2" y="40.2" class="st0" width="5.5" height="5.3"/>
	<rect x="2.2" y="66.6" class="st0" width="5.5" height="5.3"/>
	<rect x="12.4" y="66.6" class="st0" width="5.5" height="5.3"/>
	<rect x="22.4" y="66.6" class="st0" width="5.5" height="5.3"/>
	<rect x="32.6" y="66.6" class="st0" width="5.5" height="5.3"/>
	<rect x="41.8" y="66.6" class="st0" width="5.5" height="5.3"/>
	<rect x="52" y="66.6" class="st0" width="5.5" height="5.3"/>
	<rect x="62" y="66.6" class="st0" width="5.5" height="5.3"/>
	<rect x="72.2" y="66.6" class="st0" width="5.5" height="5.3"/>
	<rect x="82.2" y="66.6" class="st0" width="5.5" height="5.3"/>
	<rect x="92.3" y="66.6" class="st0" width="5.5" height="5.3"/>
	<rect x="6.3" y="58" class="st0" width="5.5" height="5.3"/>
	<rect x="16.4" y="58" class="st0" width="5.5" height="5.3"/>
	<rect x="26.5" y="58" class="st0" width="5.5" height="5.3"/>
	<rect x="36.7" y="58" class="st0" width="5.5" height="5.3"/>
	<rect x="45.9" y="58" class="st0" width="5.5" height="5.3"/>
	<rect x="56.1" y="58" class="st0" width="5.5" height="5.3"/>
	<rect x="66.1" y="58" class="st0" width="5.5" height="5.3"/>
	<rect x="76.3" y="58" class="st0" width="5.5" height="5.3"/>
	<rect x="86.2" y="58" class="st0" width="5.5" height="5.3"/>
	<rect x="6.3" y="75.3" class="st0" width="5.5" height="5.3"/>
	<rect x="16.4" y="75.3" class="st0" width="5.5" height="5.3"/>
	<rect x="26.5" y="75.3" class="st0" width="5.5" height="5.3"/>
	<rect x="36.7" y="75.3" class="st0" width="5.5" height="5.3"/>
	<rect x="45.9" y="75.3" class="st0" width="5.5" height="5.3"/>
	<rect x="56.1" y="75.3" class="st0" width="5.5" height="5.3"/>
	<rect x="66.1" y="75.3" class="st0" width="5.5" height="5.3"/>
	<rect x="76.3" y="75.3" class="st0" width="5.5" height="5.3"/>
	<rect x="86.2" y="75.3" class="st0" width="5.5" height="5.3"/>
</g>
</svg>
