<?xml version="1.0" encoding="utf-8"?>
<!-- Generator: Adobe Illustrator 25.2.1, SVG Export Plug-In . SVG Version: 6.00 Build 0)  -->
<svg version="1.1" id="Camada_1" xmlns="http://www.w3.org/2000/svg" xmlns:xlink="http://www.w3.org/1999/xlink" x="0px" y="0px"
	 viewBox="0 0 3873 2481.9" style="enable-background:new 0 0 3873 2481.9;" xml:space="preserve">
<style type="text/css">
	.st0{fill:#3D653D;}
</style>
<g>
	<path class="st0" d="M2546.1,503.4c-11.7,45.4-28.2,95.6,37.7,106.1c171.8-12.4,0-356.7-10.9-417.6c-10.2-57.4,57.1-196.5-43-191.6
		c-96.2,44.9-67.5,219.4-32.1,294.1C2530.2,362.8,2566.3,425.1,2546.1,503.4z"/>
	<path class="st0" d="M2240.2,483.6c-9.9,46-52.4,125.4,44.2,124.7c87.8-27.1,70.8-184.5,48.7-249.8
		c-21.1-62.5-57.3-115.3-62.4-183.2c-3.9-52.3,30.4-98.1,18.4-150c-18.2-21.3-32.5-27-59.5-24.5c-24,11.7-35,25.7-43.6,51
		C2111.6,270.4,2271.1,340.3,2240.2,483.6z"/>
	<path class="st0" d="M2854.2,467.6c-3.5,45.2-50.3,142.6,35.8,144.2c86.8-22.2,78.5-158.7,59.7-225
		c-19.8-69.6-71.3-137.6-74.4-210.8c-2.2-51.7,63.6-178.4-36.6-175.8c-86.9,25.3-77.4,187.5-55.8,252.1
		C2806.4,323,2860.3,390,2854.2,467.6z"/>
	<path class="st0" d="M940.8,1613.1c32,33.9,43.3,85.9,97.4,84.1c133.8-48.4-74.5-199.2-115.2-236.2c-34.5-31.3-46-57.2-96.3-56.7
		C675.7,1440.9,920.3,1591.4,940.8,1613.1z"/>
	<path class="st0" d="M2060,1610.8c35.7,31.7,37.8,64.7,87.3,87.1c37.9-2.2,55.7-24.4,51.6-62c-11.7-108.6-187.8-158.1-222.8-225.8
		c-12.2-23.7-10.1-47.4-28-69.4c-12.5-4.7-23.3-8.9-36.8-9.1c-47.1,17.3-64.5,53.1-46.2,101.3
		C1900.7,1526.8,1997.9,1555.6,2060,1610.8z"/>
	<path class="st0" d="M1272.7,1575.9c19,13,41.3,24.9,56.2,42.5c28.3,33.4,37.2,80.5,89.6,78.4c150.7-60.8-135.9-230.2-173.1-286.8
		c-25.9-39.4-19.3-100.5-81.4-99.1C1041,1377.3,1207.1,1531,1272.7,1575.9z"/>
	<path class="st0" d="M1686.1,1609.7c33.2,31.7,38.2,74.5,88.9,85.8c22.5-5,34.5-11.9,46.3-31.7c8.9-141-195.3-201.3-226.1-293.8
		c-13.4-40.4-4.3-87.6-64.1-77.8c-18.4,8.4-33.6,16.9-41.3,36.7C1441.6,1452,1611.6,1538.5,1686.1,1609.7z"/>
	<path class="st0" d="M3872.3,1911.2c-8.4-11.2-16.6-19.1-27.8-27.3c-33.1-2.3-67.1,0-100.4,0.1l-192.7,0.1
		c-180.7,0-361.6-2.3-542.3,0.7c81.3-80.2,139.4-167.5,190.5-268.8c111.7,15.6,240.6-27.1,328.5-93.5
		c303.7-229.7,233.8-728.7-167.2-658.2c0.7-68.1-14.1-91.9-85.5-91.7l-18.8,0.2c-117.9,2.4-236,0.9-354,0.9l-877.7-0.2
		c-56.8,0-133.4-15-181.2,22.7c-35.1,69.6,19.6,267.7,28.2,351.9c-358.5-102.2-883.8-27.4-1200.8,149.1
		c-217.8,121.2-397.5,326.3-403.4,584.1c-64.6,5.4-186.6-7.2-237.5,3.1c-65.8,49.1-7.9,151.3,31.4,201
		c52.2,66,122.2,105.6,203.5,123.4l1.4,1.9c19.5,26.1,34.1,55.8,53,82.5c152.6,214.8,276.8,187.7,500.8,187.3
		c143.4-0.2,287.2,2.1,430.5-0.6c169,2,338.2,0.6,507.2,0.6l1327-0.1c158.7,0.1,311.4,17.8,435.1-103.9
		c37.7-37.1,90.5-109.2,98-162.4c2.2-15.7,51-18.3,65.6-24.6C3795.9,2141.3,3877.8,2035.2,3872.3,1911.2z M3352,1068.4
		c6.3-85.3-20.7-99.7,57.4-107.9c275.1-27.7,267.4,370.4,12.1,506.9c-53.1,27.9-111.2,44.7-171.3,46.5
		C3298.4,1350,3338.3,1252.4,3352,1068.4z M120.5,1985.2c52.9-2.8,106.9-0.4,159.9-0.1c19.9,45.9,46,87.9,80.1,124.6
		C255.3,2109.8,174.8,2085.6,120.5,1985.2z M372.8,1882.8c-18.5-462.1,673.3-657.7,1032.5-672.8c322.5-15.7,682.9,55.4,925,284.1
		c102.3,96.7,207.5,251.2,211.2,395.1c6.7,258.3-286.2,220.5-452.6,220.5c-195,0-390.9-3.9-585.8,0.9c-79.6-2.1-159.4-0.9-239-0.9
		l-401.6,0C677.3,2109.8,383.6,2153.4,372.8,1882.8z M3265.2,2380.4c-79.4,2.2-159,1.1-238.4,1.1l-2116.5-0.1
		c-203,0.1-399.7,37.7-520.4-167c82.1-2.9,163.8-0.1,243.6-3.3c74.6-2.9,149.5-1.5,224.2-1.5l2241.1,0c131,0,287.8-7.4,417.3,3.1
		C3467.1,2309.4,3374.1,2372.5,3265.2,2380.4z M3492.5,2109.8l-215.3-0.2c-236.2-0.1-472.9,3.8-709,0.3
		c137.7-171.3,67.1-383.1-45.6-550.1c-94.5-140-363.7-349.2-536.8-383c-27.1-95-48.5-200.1-46.9-299.3c74-2.9,148.4-1.5,222.5-1.5
		l827.2,0c88.4,0,176.9-1.2,265.2,0.8c-1.9,81.3-1.1,161.9-10.6,242.9c-29.2,248.5-136.6,573.5-350.3,726.4
		c-28.8,20.6-82.2,45.8-102.7,71.9c-22.5,28.7,10.5,70.8,42.4,72.1c31.6,1.3,63.4-4.9,95.1-4.7l560.4-0.4c90-0.1,182-3.9,271.7,2.4
		C3691.5,2111.9,3614.6,2109.9,3492.5,2109.8z"/>
</g>
</svg>
