<?xml version="1.0" encoding="utf-8"?>
<!-- Generator: Adobe Illustrator 25.2.1, SVG Export Plug-In . SVG Version: 6.00 Build 0)  -->
<svg version="1.1" id="Camada_1" xmlns="http://www.w3.org/2000/svg" xmlns:xlink="http://www.w3.org/1999/xlink" x="0px" y="0px"
	 viewBox="0 0 100 100" style="enable-background:new 0 0 100 100;" xml:space="preserve">
<style type="text/css">
	.st0{fill:#F29F01;}
</style>
<g>
	<rect x="2.9" y="26.7" transform="matrix(0.2367 -0.9716 0.9716 0.2367 -24.3636 27.4279)" class="st0" width="4.8" height="5"/>
	<rect x="9.7" y="28.9" transform="matrix(0.2367 -0.9716 0.9716 0.2367 -21.2595 35.8078)" class="st0" width="4.8" height="5"/>
	<rect x="16.9" y="30.8" transform="matrix(0.2367 -0.9716 0.9716 0.2367 -17.5997 44.2278)" class="st0" width="4.8" height="5"/>
	<rect x="23.8" y="33" transform="matrix(0.2367 -0.9716 0.9716 0.2367 -14.4956 52.6077)" class="st0" width="4.8" height="5"/>
	<rect x="31.1" y="34.8" transform="matrix(0.2367 -0.9716 0.9716 0.2367 -10.6485 61.0235)" class="st0" width="4.8" height="5"/>
	<rect x="38" y="37" transform="matrix(0.2367 -0.9716 0.9716 0.2367 -7.5443 69.4034)" class="st0" width="4.8" height="5"/>
	<rect x="2.5" y="36.7" transform="matrix(0.2367 -0.9716 0.9716 0.2367 -34.2797 34.7235)" class="st0" width="4.8" height="5"/>
	<rect x="9.4" y="38.9" transform="matrix(0.2367 -0.9716 0.9716 0.2367 -31.1756 43.1033)" class="st0" width="4.8" height="5"/>
	<rect x="16.6" y="40.8" transform="matrix(0.2367 -0.9716 0.9716 0.2367 -27.5158 51.5233)" class="st0" width="4.8" height="5"/>
	<rect x="23.5" y="43" transform="matrix(0.2367 -0.9716 0.9716 0.2367 -24.4117 59.9033)" class="st0" width="4.8" height="5"/>
	<rect x="30.8" y="44.7" transform="matrix(0.2367 -0.9716 0.9716 0.2367 -20.5646 68.3189)" class="st0" width="4.8" height="5"/>
	<rect x="37.7" y="47" transform="matrix(0.2367 -0.9716 0.9716 0.2367 -17.4605 76.6988)" class="st0" width="4.8" height="5"/>
	<rect x="2.2" y="47.7" transform="matrix(0.2367 -0.9716 0.9716 0.2367 -45.2023 42.8276)" class="st0" width="4.8" height="5"/>
	<rect x="9.1" y="49.9" transform="matrix(0.2367 -0.9716 0.9716 0.2367 -42.0982 51.2075)" class="st0" width="4.8" height="5"/>
	<rect x="16.3" y="51.8" transform="matrix(0.2367 -0.9716 0.9716 0.2367 -38.4384 59.6273)" class="st0" width="4.8" height="5"/>
	<rect x="23.2" y="54" transform="matrix(0.2367 -0.9716 0.9716 0.2367 -35.3343 68.0072)" class="st0" width="4.8" height="5"/>
	<rect x="30.5" y="55.7" transform="matrix(0.2367 -0.9716 0.9716 0.2367 -31.4871 76.4231)" class="st0" width="4.8" height="5"/>
	<rect x="37.4" y="58" transform="matrix(0.2367 -0.9716 0.9716 0.2367 -28.383 84.803)" class="st0" width="4.8" height="5"/>
	<rect x="2.1" y="58" transform="matrix(0.2367 -0.9716 0.9716 0.2367 -55.3612 50.5223)" class="st0" width="4.8" height="5"/>
	<rect x="8.9" y="60.2" transform="matrix(0.2367 -0.9716 0.9716 0.2367 -52.2571 58.9022)" class="st0" width="4.8" height="5"/>
	<rect x="16.1" y="62.1" transform="matrix(0.2367 -0.9716 0.9716 0.2367 -48.5973 67.3223)" class="st0" width="4.8" height="5"/>
	<rect x="23" y="64.3" transform="matrix(0.2367 -0.9716 0.9716 0.2367 -45.4932 75.7022)" class="st0" width="4.8" height="5"/>
	<rect x="30.3" y="66.1" transform="matrix(0.2367 -0.9716 0.9716 0.2367 -41.6461 84.1177)" class="st0" width="4.8" height="5"/>
	<rect x="37.2" y="68.3" transform="matrix(0.2367 -0.9716 0.9716 0.2367 -38.542 92.4976)" class="st0" width="4.8" height="5"/>
	<rect x="92.2" y="26.8" transform="matrix(0.9716 -0.2367 0.2367 0.9716 -4.225 23.2561)" class="st0" width="5" height="4.8"/>
	<rect x="85.3" y="29" transform="matrix(0.9716 -0.2367 0.2367 0.9716 -4.9449 21.6891)" class="st0" width="5" height="4.8"/>
	<rect x="78.1" y="30.9" transform="matrix(0.9716 -0.2367 0.2367 0.9716 -5.5945 20.0405)" class="st0" width="5" height="4.8"/>
	<rect x="71.3" y="33.1" transform="matrix(0.9716 -0.2367 0.2367 0.9716 -6.3145 18.4734)" class="st0" width="5" height="4.8"/>
	<rect x="64" y="34.9" transform="matrix(0.9716 -0.2367 0.2367 0.9716 -6.9379 16.7999)" class="st0" width="5" height="4.8"/>
	<rect x="57.1" y="37.1" transform="matrix(0.9716 -0.2367 0.2367 0.9716 -7.6579 15.2327)" class="st0" width="5" height="4.8"/>
	<rect x="92.5" y="36.8" transform="matrix(0.9716 -0.2367 0.2367 0.9716 -6.5737 23.6137)" class="st0" width="5" height="4.8"/>
	<rect x="85.7" y="39" transform="matrix(0.9716 -0.2367 0.2367 0.9716 -7.2937 22.0466)" class="st0" width="5" height="4.8"/>
	<rect x="78.5" y="40.9" transform="matrix(0.9716 -0.2367 0.2367 0.9716 -7.9433 20.3983)" class="st0" width="5" height="4.8"/>
	<rect x="71.6" y="43.1" transform="matrix(0.9716 -0.2367 0.2367 0.9716 -8.6633 18.8311)" class="st0" width="5" height="4.8"/>
	<rect x="64.3" y="44.8" transform="matrix(0.9716 -0.2367 0.2367 0.9716 -9.2867 17.1575)" class="st0" width="5" height="4.8"/>
	<rect x="57.4" y="47.1" transform="matrix(0.9716 -0.2367 0.2367 0.9716 -10.0067 15.5904)" class="st0" width="5" height="4.8"/>
	<rect x="92.8" y="47.8" transform="matrix(0.9716 -0.2367 0.2367 0.9716 -9.1702 23.9986)" class="st0" width="5" height="4.8"/>
	<rect x="86" y="50" transform="matrix(0.9716 -0.2367 0.2367 0.9716 -9.8902 22.4314)" class="st0" width="5" height="4.8"/>
	<rect x="78.8" y="51.9" transform="matrix(0.9716 -0.2367 0.2367 0.9716 -10.5398 20.7828)" class="st0" width="5" height="4.8"/>
	<rect x="71.9" y="54.1" transform="matrix(0.9716 -0.2367 0.2367 0.9716 -11.2597 19.2156)" class="st0" width="5" height="4.8"/>
	<rect x="64.6" y="55.8" transform="matrix(0.9716 -0.2367 0.2367 0.9716 -11.8832 17.5421)" class="st0" width="5" height="4.8"/>
	<rect x="57.7" y="58.1" transform="matrix(0.9716 -0.2367 0.2367 0.9716 -12.6032 15.9751)" class="st0" width="5" height="4.8"/>
	<rect x="93" y="58.1" transform="matrix(0.9716 -0.2367 0.2367 0.9716 -11.6065 24.3345)" class="st0" width="5" height="4.8"/>
	<rect x="86.1" y="60.3" transform="matrix(0.9716 -0.2367 0.2367 0.9716 -12.3265 22.7674)" class="st0" width="5" height="4.8"/>
	<rect x="78.9" y="62.2" transform="matrix(0.9716 -0.2367 0.2367 0.9716 -12.9762 21.119)" class="st0" width="5" height="4.8"/>
	<rect x="72.1" y="64.4" transform="matrix(0.9716 -0.2367 0.2367 0.9716 -13.6961 19.5519)" class="st0" width="5" height="4.8"/>
	<rect x="64.8" y="66.2" transform="matrix(0.9716 -0.2367 0.2367 0.9716 -14.3197 17.8786)" class="st0" width="5" height="4.8"/>
	<rect x="57.9" y="68.4" transform="matrix(0.9716 -0.2367 0.2367 0.9716 -15.0396 16.3114)" class="st0" width="5" height="4.8"/>
</g>
</svg>
