<?xml version="1.0" encoding="utf-8"?>
<!-- Generator: Adobe Illustrator 25.2.1, SVG Export Plug-In . SVG Version: 6.00 Build 0)  -->
<svg version="1.1" id="Camada_1" xmlns="http://www.w3.org/2000/svg" xmlns:xlink="http://www.w3.org/1999/xlink" x="0px" y="0px"
	 viewBox="0 0 51.1 24.8" style="enable-background:new 0 0 51.1 24.8;" xml:space="preserve">
<style type="text/css">
	.st0{fill:#3C643D;}
</style>
<g>
	<rect x="9.2" y="9.5" class="st0" width="32.9" height="0.8"/>
	<rect x="9.2" y="19.5" class="st0" width="32.9" height="0.8"/>
	<path class="st0" d="M26.4,18.9c1.6,0,2.8-0.5,3.7-1.4c0.7-0.7,1-1.5,1-2.4c0-1.1-0.4-2-1.3-2.7c-0.9-0.7-2-1-3.4-1
		c-1.3,0-2.4,0.3-3.4,1c-0.9,0.7-1.3,1.6-1.3,2.7c0,1,0.3,1.8,1,2.5C23.6,18.5,24.8,18.9,26.4,18.9z M24.6,12.8c0.4-0.7,1-1,1.8-1
		c0.5,0,0.9,0.1,1.2,0.2c0.3,0.2,0.6,0.5,0.8,1c0.2,0.4,0.3,1.1,0.3,2.1c0,0.8-0.1,1.5-0.3,2s-0.5,0.9-0.9,1.1
		c-0.3,0.2-0.7,0.3-1.1,0.3c-0.6,0-1.1-0.2-1.5-0.6c-0.5-0.6-0.8-1.5-0.8-2.7C24.1,14.2,24.3,13.4,24.6,12.8z"/>
	<path class="st0" d="M10.4,18.9c0.3,0.1,0.5,0.1,0.8,0.1c0.9,0,1.6-0.3,2.2-0.7c0.6-0.5,0.9-1,0.9-1.6c0-0.5-0.1-0.9-0.5-1.3
		c-0.4-0.4-1.1-0.8-2.1-1.2c-0.7-0.3-1.2-0.5-1.4-0.6c-0.3-0.2-0.5-0.3-0.6-0.5c-0.1-0.1-0.1-0.2-0.1-0.4c0-0.3,0.1-0.5,0.4-0.7
		c0.2-0.2,0.6-0.3,1-0.3c0.6,0,1.1,0.2,1.6,0.6s0.8,0.9,0.9,1.5h0.3l-0.1-2.4h-0.2c-0.1,0.2-0.1,0.3-0.2,0.4
		c-0.1,0.1-0.2,0.1-0.3,0.1c-0.1,0-0.3-0.1-0.6-0.2c-0.3-0.1-0.5-0.2-0.7-0.2c-0.2-0.1-0.5-0.1-0.8-0.1c-0.7,0-1.4,0.2-1.9,0.6
		c-0.5,0.4-0.8,0.9-0.8,1.5c0,0.3,0.1,0.6,0.3,0.9c0.2,0.3,0.4,0.6,0.8,0.8c0.3,0.2,0.9,0.5,1.7,0.8c0.6,0.2,1,0.3,1.2,0.5
		s0.4,0.3,0.5,0.5s0.2,0.3,0.2,0.5c0,0.3-0.1,0.6-0.4,0.8s-0.7,0.3-1.2,0.3c-0.7,0-1.3-0.2-1.8-0.6c-0.5-0.4-0.9-1-1.1-1.8H8.2v2.7
		h0.1c0.1-0.1,0.2-0.2,0.3-0.3c0.2-0.1,0.3-0.1,0.4-0.1c0.1,0,0.3,0,0.5,0.1C9.8,18.8,10.2,18.9,10.4,18.9z"/>
	<path class="st0" d="M6.6,17.9c-0.5,0.3-1.2,0.5-2,0.5H4.1c-0.2,0-0.4,0-0.5-0.1c-0.1,0-0.2-0.1-0.2-0.2c-0.1-0.1-0.1-0.3-0.1-0.7
		v-4c0.5,0,0.8,0,1,0.1c0.2,0.1,0.4,0.2,0.6,0.5c0.1,0.3,0.2,0.6,0.3,1h0.3v-3.7H5.3c-0.1,0.6-0.3,1-0.5,1.3C4.6,12.9,4.2,13,3.6,13
		H3.4V8.4h0.9c0.6,0,1.1,0,1.3,0.1C6,8.6,6.4,8.8,6.6,9C6.8,9.2,7,9.6,7.1,10.1h0.3V8H0v0.2h0.3c0.3,0,0.5,0,0.8,0.1
		c0.1,0.1,0.2,0.2,0.2,0.3c0,0.1,0,0.3,0,0.6v8.3c0,0.4-0.1,0.6-0.1,0.7c-0.1,0.2-0.2,0.2-0.3,0.3c-0.1,0.1-0.3,0.1-0.6,0.1H0v0.2
		h7.6L8,16.5H7.7C7.5,17.1,7.1,17.6,6.6,17.9z"/>
	<path class="st0" d="M50.8,16.2c-0.2,0.6-0.4,1-0.6,1.3s-0.5,0.5-0.8,0.6c-0.3,0.1-0.7,0.2-1.2,0.2h-0.7c-0.4,0-0.7,0-0.8,0
		c-0.2,0-0.3-0.1-0.3-0.2c-0.1-0.1-0.1-0.3-0.1-0.7V9.2c0-0.4,0-0.6,0.1-0.7c0.1-0.1,0.2-0.2,0.3-0.3c0.2-0.1,0.4-0.1,0.6-0.1h0.4
		V7.9H43v0.2h0.3c0.2,0,0.4,0,0.6,0.1c0.1,0.1,0.2,0.1,0.3,0.2c0,0.1,0.1,0.3,0.1,0.7v8.3c0,0.4,0,0.6-0.1,0.7
		c-0.1,0.1-0.1,0.2-0.3,0.3c-0.1,0.1-0.3,0.1-0.4,0.1c-0.2,0-0.9,0-1-0.1c-0.1-0.1-0.2-0.1-0.3-0.2c0-0.1-0.1-0.3-0.1-0.7v-4.8
		c0-0.4,0-0.6,0.1-0.7c0.1-0.1,0.2-0.2,0.3-0.3c0.2-0.1,0.4-0.1,0.6-0.1h0.3v-0.2h-4.6v0.2H39c0.2,0,0.4,0,0.6,0.1
		c0.1,0.1,0.2,0.2,0.3,0.2c0,0.1,0.1,0.3,0.1,0.7v4.8c0,0.4,0,0.6-0.1,0.7c-0.1,0.1-0.1,0.2-0.3,0.3c-0.1,0-0.4-0.1-0.4-0.1
		c-0.1-0.1-0.3-0.3-0.6-0.6l-2.1-2.4c0.5-0.1,1-0.3,1.3-0.5c0.5-0.3,0.7-0.8,0.7-1.3c0-0.4-0.2-0.8-0.5-1.1
		c-0.3-0.3-0.7-0.5-1.2-0.7c-0.5-0.1-1.3-0.2-2.3-0.2h-4.1v0.2c0.4,0,0.7,0,0.8,0.1s0.2,0.1,0.3,0.2c0.1,0.1,0.1,0.3,0.1,0.7v4.7
		c0,0.4,0,0.6-0.1,0.7c-0.1,0.1-0.2,0.2-0.3,0.2c-0.1,0.1-0.4,0.1-0.8,0.1v0.2h4.5v-0.2c-0.4,0-0.7,0-0.8-0.1
		c-0.1-0.1-0.2-0.1-0.3-0.2c-0.1-0.1-0.1-0.3-0.1-0.7v-2h0.6l2.8,3.3h1.4H40h2.3h1.5h6.9l0.4-2.5H50.8z M36,14.4
		c-0.2,0.2-0.4,0.4-0.7,0.5C35,15,34.6,15,34,15h-0.4v-3.1h0.7c0.7,0,1.2,0.1,1.5,0.4c0.3,0.3,0.5,0.7,0.5,1.2
		C36.3,13.9,36.2,14.2,36,14.4z"/>
	<path class="st0" d="M19.7,12c0.4,0,0.7,0,0.9,0.1c0.3,0.1,0.5,0.3,0.7,0.5c0.2,0.2,0.3,0.5,0.5,1H22v-2.1h-0.1H14v2h0.2
		c0.1-0.5,0.3-0.9,0.7-1.2c0.3-0.2,0.7-0.3,1.3-0.3h0.6v5.6c0,0.4,0,0.6-0.1,0.7s-0.2,0.2-0.3,0.3c-0.2,0.1-0.4,0.1-0.6,0.1h-0.3
		v0.2h4.6v-0.2H20c-0.2,0-0.4,0-0.6-0.1c-0.1-0.1-0.2-0.1-0.3-0.2C19,18.1,19,17.9,19,17.5V12H19.7z"/>
	<path class="st0" d="M34.5,24.2c-0.2,0.1-0.5,0.2-0.8,0.2h-0.2c-0.1,0-0.2,0-0.2,0c-0.1,0-0.1-0.1-0.1-0.1c0-0.1,0-0.2,0-0.3v-0.7
		h-0.1v-1.1h0.4c0.2,0,0.4,0,0.5,0c0.2,0.1,0.3,0.1,0.4,0.2c0.1,0.1,0.2,0.2,0.2,0.4h0.1V22h-2.8c0.1,0,0.2,0.1,0.3,0.1
		s0.1,0.1,0.1,0.1s0,0.1,0,0.2v1.7c0,0.1,0,0.2,0,0.2c0,0.1-0.1,0.1-0.1,0.1s-0.1,0-0.2,0h-0.2v0.1h3l0.2-0.8h-0.1
		C34.8,23.9,34.7,24.1,34.5,24.2z"/>
	<path class="st0" d="M12.6,22.1c0,0.1,0,0.2,0,0.3v0.8h-1.2v-0.8c0-0.1,0-0.2,0-0.2l0.1-0.1c0,0,0.1,0,0.2,0h0.1V22H10v0.2h0.1
		c0.1,0,0.1,0,0.2,0l0.1,0.1c0,0.1,0,0.2,0,0.3v1.7c0,0.1,0,0.2,0,0.2c0,0.1-0.1,0.1-0.1,0.1s-0.1,0-0.2,0H10v0.1h1.8v-0.1h-0.1
		c-0.1,0-0.1,0-0.2,0l-0.1-0.1c0-0.1,0-0.2,0-0.3v-0.8h1.2v0.8c0,0.1,0,0.2,0,0.2c0,0.1-0.1,0.1-0.1,0.1s-0.1,0-0.2,0h-0.1v0.1H14
		v-0.1h-0.1c-0.1,0-0.1,0-0.2,0l-0.1-0.1c0-0.1,0-0.2,0-0.3v-1.7c0-0.1,0-0.2,0-0.2l0.1-0.1c0,0,0.1,0,0.2,0H14V22h-1.5L12.6,22.1z"
		/>
	<path class="st0" d="M41.9,23.8l0,0.1C41.9,23.8,42,23.8,41.9,23.8L41.9,23.8L41.9,23.8z"/>
	<path class="st0" d="M33.8,23.6c0,0.1,0.1,0.2,0.1,0.4H34v-1.4h-0.1c0,0.2-0.1,0.4-0.2,0.5c-0.1,0.1-0.3,0.2-0.5,0.2
		c0.2,0,0.3,0.1,0.4,0.1C33.7,23.4,33.7,23.5,33.8,23.6z"/>
	<path class="st0" d="M41.4,24.4c-0.2,0.1-0.3,0.1-0.5,0.1h-0.3c-0.2,0-0.3,0-0.3,0l-0.1-0.1c0-0.1,0-0.2,0-0.3v-1.7
		c0-0.1,0-0.2,0-0.2l0.1-0.1c0,0,0.1,0,0.2,0h0.1V22h-1.8v0.2h0.1c0.1,0,0.1,0,0.2,0l0.1,0.1c0,0.1,0,0.2,0,0.3v1.7
		c0,0.1,0,0.2,0,0.2c0,0.1-0.1,0.1-0.1,0.1s-0.1,0-0.2,0h-0.1v0.1h3l0.1-0.8c-0.1,0.1-0.1,0.2-0.2,0.3
		C41.6,24.3,41.5,24.4,41.4,24.4z"/>
	<path class="st0" d="M24.9,22.8L24.9,22.8c0.2-0.2,0.3-0.4,0.4-0.5c0.1-0.1,0.3-0.1,0.5-0.1H26v2c0,0.1,0,0.2,0,0.2
		c0,0.1-0.1,0.1-0.1,0.1s-0.1,0-0.2,0h-0.1v0.1h1.8v-0.1h-0.1c-0.1,0-0.1,0-0.2,0L27,24.4c0-0.1,0-0.2,0-0.3v-2h0.2
		c0.1,0,0.2,0,0.3,0c0.1,0.1,0.2,0.1,0.3,0.2c0.1,0.1,0.1,0.2,0.2,0.4h0.1V22h-3.2V22.8z"/>
	<path class="st0" d="M19.4,22c-0.5,0-0.9,0.1-1.3,0.4c-0.3,0.3-0.5,0.6-0.5,1c0,0.3,0.1,0.6,0.4,0.9s0.8,0.5,1.4,0.5
		c0.6,0,1.1-0.2,1.4-0.5c0.3-0.3,0.4-0.6,0.4-0.9c0-0.4-0.2-0.7-0.5-1C20.4,22.1,19.9,22,19.4,22z M20.2,24.1c0,0.2-0.2,0.3-0.3,0.4
		c-0.1,0.1-0.2,0.1-0.4,0.1c-0.3,0-0.5,0-0.6-0.2c-0.2-0.2-0.3-0.5-0.3-1c0-0.4,0.1-0.7,0.2-0.9c0.1-0.3,0.4-0.4,0.7-0.4
		c0.1,0,0.3,0.1,0.4,0.1c0.1,0.1,0.2,0.2,0.3,0.4s0.1,0.4,0.1,0.8C20.3,23.7,20.3,23.9,20.2,24.1z"/>
	<path class="st0" d="M24.5,3l-1.1-1.3c-2.6,2.9-8.1,2.9-10.8-0.1l-1.2,1.2C14.7,6.4,21,6.5,24.5,3z"/>
	<path class="st0" d="M22.9,1.2L21.7,0c-2.2,2-5.2,2-7.5,0L13,1.2C16,3.9,19.8,4,22.9,1.2z"/>
	<path class="st0" d="M39.9,5.1C36.6,1.6,30.3,1.5,26.8,5L28,6.2c2.6-2.9,8.1-2.9,10.8,0.1L39.9,5.1z"/>
	<path class="st0" d="M29.6,7.9c2.2-2,5.2-2,7.5,0l1.2-1.2c-3-2.6-6.8-2.8-9.9,0L29.6,7.9z"/>
	<path class="st0" d="M26.2,4.6l0.2-0.2c3.6-3.8,9.8-3.9,14,0.2l1.2-1.2C37.7-1,29.2-1.2,25.1,3.3L25,3.5c-4.2,3.8-9.9,3.9-14.1-0.1
		L9.7,4.5C13.6,9,22.1,9.2,26.2,4.6z"/>
</g>
</svg>
