<?xml version="1.0" encoding="utf-8"?>
<!-- Generator: Adobe Illustrator 25.2.1, SVG Export Plug-In . SVG Version: 6.00 Build 0)  -->
<svg version="1.1" id="Camada_1" xmlns="http://www.w3.org/2000/svg" xmlns:xlink="http://www.w3.org/1999/xlink" x="0px" y="0px"
	 viewBox="0 0 71 64" style="enable-background:new 0 0 71 64;" xml:space="preserve">
<style type="text/css">
	.st0{fill:#3C643D;}
</style>
<g>
	<path class="st0" d="M69.2,60.9v-0.8c0-0.4-0.3-0.7-0.7-0.7H52.9c-0.4,0-0.7,0.3-0.7,0.7v0.8c-1,0.3-1.8,1.3-1.8,2.4
		c0,0.4,0.3,0.7,0.7,0.7h19.2c0.4,0,0.7-0.3,0.7-0.7C71,62.2,70.2,61.2,69.2,60.9z M51.9,62.7c0.2-0.3,0.6-0.6,1-0.6
		c0.4,0,0.7-0.3,0.7-0.7c0-0.1,0-0.2-0.1-0.3v-0.5h14.3v0.5c0,0.1-0.1,0.2-0.1,0.3c0,0.4,0.3,0.7,0.7,0.7c0.4,0,0.8,0.2,1,0.6H51.9z
		"/>
	<path class="st0" d="M58.2,48.9h5c0.4,0,0.7-0.3,0.7-0.7c0-1.7-1.4-3.1-3.1-3.1h-0.1c-1.7,0-3.1,1.4-3.1,3.1
		C57.6,48.6,57.9,48.9,58.2,48.9z M60.7,46.4h0.1c0.8,0,1.4,0.5,1.7,1.1H59C59.3,46.9,59.9,46.4,60.7,46.4z"/>
	<path class="st0" d="M53.2,58.4h15c0.4,0,0.7-0.3,0.7-0.7c0-3.6-2.1-6.2-5.8-7.1v-0.2c0-0.4-0.3-0.7-0.7-0.7H59
		c-0.4,0-0.7,0.3-0.7,0.7v0.2c-3.6,0.8-5.8,3.4-5.8,7C52.5,58.1,52.8,58.4,53.2,58.4z M59.1,51.8c0.3-0.1,0.5-0.3,0.5-0.7v-0.1h2.2
		v0.1c0,0.3,0.2,0.6,0.5,0.7c1.5,0.3,4.8,1.3,5.2,5.2H53.9C54.2,53.1,57.6,52.1,59.1,51.8z"/>
	<path class="st0" d="M39.8,57.1c-0.6,0-1,0.5-1,1.2v1.9c0,0.7,0.5,1.2,1,1.2h6c0.6,0,1-0.5,1-1.2v-1.9c0-0.7-0.5-1.2-1-1.2H39.8z
		 M45.4,59.9h-5.1v-1.3h5.1V59.9z"/>
	<path class="st0" d="M19.8,41.1l-0.1-0.2c-0.1-0.2-0.2-0.3-0.4-0.4c-0.2-0.1-0.4-0.1-0.5,0l-6.7,3.1c-0.3,0.1-0.4,0.5-0.4,0.8
		l1.6,6.4c0.1,0.3,0.4,0.5,0.7,0.5l1.3-0.1l-1.1,0.8c-0.3,0.2-0.4,0.6-0.2,0.9l6.7,10.9c0.1,0.2,0.3,0.3,0.6,0.3h4.4
		c0.2,0,0.4-0.1,0.5-0.3c0.1-0.2,0.2-0.4,0.1-0.6L19.8,41.1z M21.7,62.7l-6.2-10.1l2.6-1.8c0.2-0.2,0.3-0.5,0.2-0.8
		c-0.1-0.3-0.4-0.5-0.7-0.4l-3.1,0.3l-1.3-5.3l5.5-2.6l6.1,20.7H21.7z"/>
	<path class="st0" d="M1.3,62.7V55c0-3.4,2.2-6.4,5.5-7.5l4-1.8l-0.3-1.1c0-0.1,0-0.1,0-0.2l-4.2,1.9C2.5,47.6,0,51.1,0,55v8.3
		C0,63.7,0.3,64,0.7,64h18.7l-0.8-1.3H1.3z"/>
	<path class="st0" d="M41,51.9l-1.1-0.8l1.3,0.1c0.3,0,0.6-0.2,0.7-0.5l1.5-6.3l0-0.1c0.1-0.3-0.1-0.6-0.4-0.7l-6.7-3.1
		c-0.2-0.1-0.4-0.1-0.5,0c-0.2,0.1-0.3,0.2-0.4,0.4l-6.6,22.3c-0.1,0.2,0,0.4,0.1,0.6c0.1,0.2,0.3,0.3,0.5,0.3H34
		c0.2,0,0.4-0.1,0.6-0.3l6.7-10.9C41.4,52.5,41.3,52.1,41,51.9z M33.6,62.7h-3.2L36.5,42l5.5,2.6l-1.3,5.3l-3.1-0.3
		c-0.3,0-0.6,0.2-0.7,0.4c-0.1,0.3,0,0.6,0.2,0.8l2.5,1.8L33.6,62.7z"/>
	<path class="st0" d="M30.4,53.5l-0.2-2.3l0.2-1.4l0.9,0.7l0.4-1.4l-1.3-1.1c0,0-0.1-0.1-0.1-0.1l-1.7-1.4l5.3-4.5l0.6-2.3l-6.9,5.9
		l-6.9-5.9l0.6,2.3l5.4,4.5L25,48c0,0,0,0,0,0l-1.4,1.2l0.4,1.4l0.9-0.8l0.2,1.5l-0.2,2.3l1,3.4l0.5-5.1h2.5l0.5,5.1L30.4,53.5z
		 M28.9,50.6h-2.5l-0.2-1.9l0.3-0.3l1.1-1l1.5,1.3L28.9,50.6z"/>
	<path class="st0" d="M53.3,52c0.3-0.3,0.6-0.7,1-0.9c-1.1-2.2-3-3.9-5.4-4.7l-4.2-1.9c0,0.1,0,0.1,0,0.2l-0.3,1.1l4,1.8
		C50.7,48.3,52.5,50,53.3,52z"/>
	<path class="st0" d="M49.2,62.7H36.7L35.9,64h13.4c-0.1-0.2-0.1-0.4-0.1-0.7C49.1,63.1,49.1,62.9,49.2,62.7z"/>
	<path class="st0" d="M13.6,15.9c0.3-0.1,0.6-0.1,0.9-0.1l-0.3-3.6C14.1,9.5,15.1,7,16.9,5C17,5,17,5,17,4.9
		c2.6-2.7,5.2-3.6,10.6-3.6c5.4,0,8,0.9,10.6,3.6c0,0,0.1,0.1,0.1,0.1c1.8,1.9,2.8,4.5,2.7,7.1l-0.3,3.6c0.3,0,0.6,0,0.9,0.1
		c0.1,0,0.3,0.1,0.4,0.2l0.3-3.8c0.1-3-1-5.9-3.1-8.1C36.4,1,33.4,0,27.6,0h0h0C21.8,0,18.9,1,16,4.1c-2.1,2.2-3.2,5.1-3.1,8.1
		l0.3,3.8C13.3,16,13.5,15.9,13.6,15.9z"/>
	<path class="st0" d="M14.4,26.5c0.2,0.1,0.4,0.1,0.7,0.1c0.6,2.5,1.3,4.5,2.2,5.8c1.1,1.6,2,2.9,2.9,3.9c1.9,2.2,3.6,2.9,7.5,2.9
		c3.9,0,5.5-0.7,7.5-2.9c0.9-1,1.8-2.4,2.9-3.9c0.9-1.3,1.7-3.3,2.2-5.8c0.2,0,0.5-0.1,0.7-0.1c1.4-0.5,1.9-2.3,2.2-4.2
		c0.4-2.3,0.1-4-0.7-4.8c-0.8-0.9-2-0.8-2.5-0.2v-4.7c0-0.3,0-0.5-0.1-0.8c-0.4-2.7-2.7-4.8-5.6-4.8H20.9c-2.8,0-5.2,2.1-5.6,4.8
		c0,0.3-0.1,0.5-0.1,0.8v4.7c-0.4-0.5-1.7-0.7-2.5,0.2c-0.7,0.9-1,2.5-0.7,4.8C12.5,24.1,13,26,14.4,26.5z M14.1,18.2L14.1,18.2
		c0.1,0,0.2,0,0.3,0c0,0,0,0,0.1,0c0.3,0.1,0.7,0.4,1,0.9l1.2,1.7v-8.4c0-2.4,1.9-4.3,4.3-4.3h13.4c2.4,0,4.3,1.9,4.3,4.3v8.4
		l1.2-1.7c0.3-0.5,0.7-0.7,1-0.9c0,0,0,0,0.1,0c0.1,0,0.2,0,0.3,0l0,0c0.7,0.1,0.9,1.7,0.6,3.8c-0.2,1.3-0.6,2.9-1.3,3.2
		c-0.1,0.1-0.3,0.1-0.4,0.1L39.2,25l-0.2,0.7c-0.6,2.7-1.3,4.7-2.2,6c-1,1.5-2,2.9-2.8,3.8c-1.7,1.9-3,2.4-6.4,2.4h-0.1
		c-3.4,0-4.7-0.5-6.4-2.4c-0.8-1-1.8-2.3-2.8-3.8c-0.9-1.3-1.6-3.3-2.2-6L16,25l-0.8,0.3c-0.1,0-0.2,0-0.4-0.1
		c-0.8-0.3-1.1-1.9-1.3-3.2C13.2,19.9,13.4,18.3,14.1,18.2z"/>
</g>
</svg>
